<?xml version="1.0" encoding="utf-8"?>
<!-- Generator: Adobe Illustrator 19.0.0, SVG Export Plug-In . SVG Version: 6.00 Build 0)  -->
<svg version="1.1" id="Layer_1" xmlns="http://www.w3.org/2000/svg" xmlns:xlink="http://www.w3.org/1999/xlink" x="0px" y="0px"
	 viewBox="0 0 193.5 105" style="enable-background:new 0 0 193.5 105;" xml:space="preserve">
<style type="text/css">
	.st0{fill:#FFFFFF;}
	.st1{fill:#D42A2A;}
</style>
<g id="XMLID_20_">
	<g id="XMLID_2_">
		<path id="XMLID_21_" class="st0" d="M62.4,55.6l-4.1-13.4h-0.1c0.1,2.7,0.2,4.6,0.2,5.5v8h-3.2V38.5h4.9l4.1,13.1h0.1l4.3-13.1
			h4.9v17.1h-3.4v-8.1c0-0.4,0-0.8,0-1.3s0.1-1.8,0.2-4h-0.1l-4.4,13.4H62.4z"/>
		<path id="XMLID_24_" class="st0" d="M85.8,55.6l-0.7-1.8h-0.1c-0.6,0.8-1.2,1.3-1.9,1.6s-1.5,0.4-2.5,0.4c-1.3,0-2.2-0.4-3-1.1
			s-1.1-1.7-1.1-3.1c0-1.4,0.5-2.4,1.5-3.1s2.4-1,4.4-1.1l2.3-0.1v-0.6c0-1.3-0.7-2-2-2c-1,0-2.3,0.3-3.7,0.9l-1.2-2.4
			c1.5-0.8,3.2-1.2,5-1.2c1.8,0,3.1,0.4,4,1.1s1.4,1.9,1.4,3.5v8.7H85.8z M84.8,49.6l-1.4,0c-1,0-1.8,0.2-2.3,0.6s-0.8,0.9-0.8,1.6
			c0,1,0.6,1.5,1.7,1.5c0.8,0,1.5-0.2,2-0.7s0.7-1.1,0.7-1.9V49.6z"/>
		<path id="XMLID_27_" class="st0" d="M99.3,42.3c0.5,0,0.9,0,1.2,0.1l-0.3,3.4c-0.3-0.1-0.6-0.1-1.1-0.1c-1.1,0-2,0.3-2.7,0.9
			c-0.6,0.6-1,1.4-1,2.5v6.7H92V42.5h2.7l0.5,2.2h0.2c0.4-0.7,1-1.3,1.6-1.8C97.8,42.5,98.5,42.3,99.3,42.3z"/>
		<path id="XMLID_30_" class="st0" d="M102.8,39.1c0-1.2,0.6-1.7,1.9-1.7s1.9,0.6,1.9,1.7c0,0.6-0.2,1-0.5,1.3s-0.8,0.5-1.5,0.5
			C103.4,40.9,102.8,40.3,102.8,39.1z M106.5,55.6h-3.6V42.5h3.6V55.6z"/>
		<path id="XMLID_33_" class="st0" d="M122.3,55.6h-3.6V48c0-0.9-0.2-1.7-0.5-2.1s-0.9-0.7-1.6-0.7c-1,0-1.7,0.3-2.2,1
			s-0.7,1.8-0.7,3.3v6.2h-3.6V42.5h2.7l0.5,1.7h0.2c0.4-0.6,0.9-1.1,1.6-1.4s1.5-0.5,2.4-0.5c1.5,0,2.7,0.4,3.5,1.2s1.2,2,1.2,3.6
			V55.6z"/>
		<path id="XMLID_35_" class="st0" d="M131.9,55.9c-2.1,0-3.8-0.6-4.9-1.7s-1.8-2.8-1.8-4.9c0-2.2,0.5-3.9,1.6-5.1s2.6-1.8,4.6-1.8
			c1.9,0,3.3,0.5,4.3,1.6s1.5,2.5,1.5,4.4V50h-8.4c0,1,0.3,1.8,0.9,2.4s1.4,0.9,2.4,0.9c0.8,0,1.5-0.1,2.2-0.2s1.4-0.4,2.2-0.8v2.8
			c-0.6,0.3-1.3,0.5-2,0.7S133,55.9,131.9,55.9z M131.4,44.8c-0.8,0-1.4,0.2-1.8,0.7s-0.7,1.2-0.7,2h5c0-0.9-0.2-1.6-0.7-2
			S132.2,44.8,131.4,44.8z"/>
		<path id="XMLID_38_" class="st0" d="M14,84.4h-3.6V77H3.6v7.4H0V67.3h3.6V74h6.8v-6.7H14V84.4z"/>
		<path id="XMLID_40_" class="st0" d="M24,84.7c-2.1,0-3.8-0.6-4.9-1.7s-1.8-2.8-1.8-4.9c0-2.2,0.5-3.9,1.6-5.1s2.6-1.8,4.6-1.8
			c1.9,0,3.3,0.5,4.3,1.6s1.5,2.5,1.5,4.4v1.7h-8.4c0,1,0.3,1.8,0.9,2.4s1.4,0.9,2.4,0.9c0.8,0,1.5-0.1,2.2-0.2s1.4-0.4,2.2-0.8v2.8
			c-0.6,0.3-1.3,0.5-2,0.7S25,84.7,24,84.7z M23.5,73.6c-0.8,0-1.4,0.2-1.8,0.7s-0.7,1.2-0.7,2h5c0-0.9-0.2-1.6-0.7-2
			S24.3,73.6,23.5,73.6z"/>
		<path id="XMLID_43_" class="st0" d="M39.6,71.1c0.5,0,0.9,0,1.2,0.1l-0.3,3.4c-0.3-0.1-0.6-0.1-1.1-0.1c-1.1,0-2,0.3-2.7,0.9
			s-1,1.4-1,2.5v6.7h-3.6V71.3H35l0.5,2.2h0.2c0.4-0.7,1-1.3,1.6-1.8S38.8,71.1,39.6,71.1z"/>
		<path id="XMLID_45_" class="st0" d="M43,67.9c0-1.2,0.6-1.7,1.9-1.7s1.9,0.6,1.9,1.7c0,0.6-0.2,1-0.5,1.3s-0.8,0.5-1.5,0.5
			C43.7,69.7,43,69.1,43,67.9z M46.7,84.4h-3.6V71.3h3.6V84.4z"/>
		<path id="XMLID_48_" class="st0" d="M56,81.8c0.6,0,1.4-0.1,2.3-0.4v2.7c-0.9,0.4-2,0.6-3.3,0.6c-1.4,0-2.5-0.4-3.1-1.1
			s-1-1.8-1-3.3V74h-1.7v-1.5l2-1.2l1-2.8h2.3v2.8h3.7V74h-3.7v6.3c0,0.5,0.1,0.9,0.4,1.1S55.5,81.8,56,81.8z"/>
		<path id="XMLID_50_" class="st0" d="M69.2,84.4l-0.7-1.8h-0.1c-0.6,0.8-1.2,1.3-1.9,1.6s-1.5,0.4-2.5,0.4c-1.3,0-2.2-0.4-3-1.1
			S60,81.8,60,80.5c0-1.4,0.5-2.4,1.5-3.1s2.4-1,4.4-1.1l2.3-0.1v-0.6c0-1.3-0.7-2-2-2c-1,0-2.3,0.3-3.7,0.9l-1.2-2.4
			c1.5-0.8,3.2-1.2,5-1.2c1.8,0,3.1,0.4,4,1.1s1.4,1.9,1.4,3.5v8.7H69.2z M68.2,78.4l-1.4,0c-1,0-1.8,0.2-2.3,0.6s-0.8,0.9-0.8,1.6
			c0,1,0.6,1.5,1.7,1.5c0.8,0,1.5-0.2,2-0.7s0.7-1.1,0.7-1.9V78.4z"/>
		<path id="XMLID_53_" class="st0" d="M86.8,71.3v1.8l-2.1,0.5c0.4,0.6,0.6,1.2,0.6,2c0,1.4-0.5,2.5-1.5,3.3s-2.3,1.2-4.1,1.2
			l-0.6,0L78.6,80c-0.4,0.3-0.6,0.6-0.6,0.9c0,0.5,0.7,0.8,2,0.8h2.2c1.4,0,2.5,0.3,3.3,0.9s1.1,1.5,1.1,2.7c0,1.5-0.6,2.7-1.9,3.6
			s-3.1,1.3-5.5,1.3c-1.8,0-3.2-0.3-4.2-1s-1.4-1.5-1.4-2.7c0-0.8,0.2-1.4,0.7-2s1.2-0.9,2.2-1.1c-0.4-0.2-0.7-0.4-1-0.8
			s-0.4-0.7-0.4-1.1c0-0.5,0.1-0.9,0.4-1.2s0.7-0.7,1.3-1c-0.7-0.3-1.2-0.8-1.6-1.4s-0.6-1.4-0.6-2.3c0-1.4,0.5-2.5,1.4-3.3
			s2.3-1.2,4-1.2c0.4,0,0.8,0,1.3,0.1s0.8,0.1,1,0.1H86.8z M76.7,86.3c0,0.5,0.2,0.9,0.7,1.2s1.1,0.4,2,0.4c1.3,0,2.3-0.2,3-0.5
			s1.1-0.8,1.1-1.4c0-0.5-0.2-0.8-0.6-1s-1.1-0.3-2-0.3H79c-0.7,0-1.2,0.2-1.6,0.5S76.7,85.8,76.7,86.3z M78,75.6
			c0,0.7,0.2,1.3,0.5,1.7s0.8,0.6,1.5,0.6c0.7,0,1.2-0.2,1.5-0.6s0.5-1,0.5-1.7c0-1.6-0.6-2.4-1.9-2.4C78.6,73.2,78,74,78,75.6z"/>
		<path id="XMLID_57_" class="st0" d="M94.9,84.7c-2.1,0-3.8-0.6-4.9-1.7s-1.8-2.8-1.8-4.9c0-2.2,0.5-3.9,1.6-5.1s2.6-1.8,4.6-1.8
			c1.9,0,3.3,0.5,4.3,1.6s1.5,2.5,1.5,4.4v1.7h-8.4c0,1,0.3,1.8,0.9,2.4S94,82,95.1,82c0.8,0,1.5-0.1,2.2-0.2
			c0.7-0.2,1.4-0.4,2.2-0.8v2.8c-0.6,0.3-1.3,0.5-2,0.7S95.9,84.7,94.9,84.7z M94.4,73.6c-0.8,0-1.4,0.2-1.8,0.7s-0.7,1.2-0.7,2h5
			c0-0.9-0.2-1.6-0.7-2S95.1,73.6,94.4,73.6z"/>
		<path id="XMLID_60_" class="st0" d="M119.8,79.7c0,1.5-0.6,2.8-1.7,3.7s-2.7,1.3-4.6,1.3c-1.8,0-3.4-0.3-4.9-1v-3.4
			c1.2,0.5,2.1,0.9,2.9,1.1s1.5,0.3,2.2,0.3c0.8,0,1.4-0.2,1.8-0.5s0.6-0.8,0.6-1.4c0-0.3-0.1-0.6-0.3-0.9s-0.5-0.5-0.8-0.8
			s-1.1-0.6-2.2-1.2c-1-0.5-1.8-1-2.4-1.4s-0.9-1-1.3-1.6s-0.5-1.3-0.5-2.1c0-1.5,0.5-2.7,1.5-3.6s2.4-1.3,4.3-1.3
			c0.9,0,1.7,0.1,2.5,0.3s1.7,0.5,2.5,0.9l-1.2,2.8c-0.9-0.4-1.7-0.6-2.3-0.8s-1.2-0.2-1.8-0.2c-0.7,0-1.2,0.2-1.6,0.5
			s-0.6,0.7-0.6,1.3c0,0.3,0.1,0.6,0.2,0.8s0.4,0.5,0.7,0.7s1.1,0.6,2.3,1.2c1.6,0.8,2.7,1.5,3.3,2.3S119.8,78.6,119.8,79.7z"/>
		<path id="XMLID_62_" class="st0" d="M134.5,77.9c0,2.1-0.6,3.8-1.7,5s-2.7,1.8-4.7,1.8c-1.3,0-2.4-0.3-3.3-0.8
			c-1-0.6-1.7-1.3-2.2-2.4s-0.8-2.2-0.8-3.6c0-2.1,0.6-3.8,1.7-5s2.7-1.8,4.7-1.8c1.3,0,2.4,0.3,3.3,0.8s1.7,1.3,2.2,2.4
			S134.5,76.5,134.5,77.9z M125.4,77.9c0,1.3,0.2,2.3,0.6,2.9s1.1,1,2.1,1c1,0,1.6-0.3,2.1-1s0.6-1.6,0.6-2.9c0-1.3-0.2-2.3-0.6-2.9
			s-1.1-1-2.1-1c-1,0-1.6,0.3-2.1,1S125.4,76.6,125.4,77.9z"/>
		<path id="XMLID_65_" class="st0" d="M142.8,84.7c-4.1,0-6.1-2.2-6.1-6.7c0-2.2,0.6-3.9,1.7-5.1s2.7-1.8,4.8-1.8
			c1.5,0,2.9,0.3,4.1,0.9l-1.1,2.8c-0.6-0.2-1.1-0.4-1.6-0.6s-1-0.2-1.5-0.2c-1.9,0-2.8,1.3-2.8,4c0,2.6,0.9,3.8,2.8,3.8
			c0.7,0,1.3-0.1,1.9-0.3s1.2-0.5,1.8-0.9v3.1c-0.6,0.4-1.2,0.6-1.8,0.8S143.7,84.7,142.8,84.7z"/>
		<path id="XMLID_67_" class="st0" d="M149.6,67.9c0-1.2,0.6-1.7,1.9-1.7s1.9,0.6,1.9,1.7c0,0.6-0.2,1-0.5,1.3s-0.8,0.5-1.5,0.5
			C150.3,69.7,149.6,69.1,149.6,67.9z M153.4,84.4h-3.6V71.3h3.6V84.4z"/>
		<path id="XMLID_70_" class="st0" d="M163,84.7c-2.1,0-3.8-0.6-4.9-1.7s-1.8-2.8-1.8-4.9c0-2.2,0.5-3.9,1.6-5.1s2.6-1.8,4.6-1.8
			c1.9,0,3.3,0.5,4.3,1.6s1.5,2.5,1.5,4.4v1.7h-8.4c0,1,0.3,1.8,0.9,2.4s1.4,0.9,2.4,0.9c0.8,0,1.5-0.1,2.2-0.2s1.4-0.4,2.2-0.8v2.8
			c-0.6,0.3-1.3,0.5-2,0.7S164.1,84.7,163,84.7z M162.5,73.6c-0.8,0-1.4,0.2-1.8,0.7s-0.7,1.2-0.7,2h5c0-0.9-0.2-1.6-0.7-2
			S163.3,73.6,162.5,73.6z"/>
		<path id="XMLID_73_" class="st0" d="M176.8,81.8c0.6,0,1.4-0.1,2.3-0.4v2.7c-0.9,0.4-2,0.6-3.3,0.6c-1.4,0-2.5-0.4-3.1-1.1
			s-1-1.8-1-3.3V74H170v-1.5l2-1.2l1-2.8h2.3v2.8h3.7V74h-3.7v6.3c0,0.5,0.1,0.9,0.4,1.1S176.3,81.8,176.8,81.8z"/>
		<path id="XMLID_75_" class="st0" d="M179.8,71.3h3.9l2.5,7.4c0.2,0.6,0.4,1.4,0.4,2.3h0.1c0.1-0.8,0.3-1.6,0.5-2.3l2.4-7.4h3.8
			l-5.5,14.8c-0.5,1.4-1.2,2.4-2.2,3.1s-2,1-3.3,1c-0.6,0-1.2-0.1-1.8-0.2v-2.8c0.4,0.1,0.9,0.2,1.4,0.2c0.6,0,1.2-0.2,1.7-0.6
			s0.8-1,1.1-1.8l0.2-0.6L179.8,71.3z"/>
	</g>
	<circle id="XMLID_7_" class="st1" cx="97" cy="14.4" r="3.2"/>
	<polygon id="XMLID_9_" class="st1" points="96.9,0 96.1,11.5 97.9,11.5 	"/>
	<g id="XMLID_10_">
		<path id="XMLID_28_" class="st0" d="M28.5,93.1c-1.2,0-2.1,0.4-2.7,1.1c-0.7,0.7-1,1.8-1,3.1c0,1.3,0.3,2.4,0.9,3.1
			c0.6,0.7,1.5,1.1,2.7,1.1c0.8,0,1.5-0.1,2.1-0.3v0.6c-0.6,0.2-1.4,0.3-2.3,0.3c-1.3,0-2.3-0.4-3.1-1.3c-0.7-0.8-1.1-2-1.1-3.5
			c0-0.9,0.2-1.8,0.5-2.5c0.4-0.7,0.9-1.3,1.5-1.7c0.7-0.4,1.5-0.6,2.3-0.6c0.9,0,1.7,0.2,2.4,0.5l-0.3,0.6
			C29.9,93.2,29.2,93.1,28.5,93.1z"/>
		<path id="XMLID_78_" class="st0" d="M38.6,101.9v-4.5c0-0.7-0.1-1.2-0.4-1.5s-0.7-0.5-1.4-0.5c-0.8,0-1.4,0.2-1.8,0.6
			c-0.4,0.4-0.6,1.1-0.6,2v3.8h-0.6V92h0.6v3.1l0,0.9h0c0.3-0.4,0.6-0.7,1-0.9c0.4-0.2,0.9-0.3,1.5-0.3c1.6,0,2.3,0.8,2.3,2.5v4.5
			H38.6z"/>
		<path id="XMLID_80_" class="st0" d="M46.9,101.9l-0.2-1.1h-0.1c-0.3,0.4-0.7,0.8-1.1,0.9c-0.4,0.2-0.8,0.3-1.3,0.3
			c-0.7,0-1.2-0.2-1.6-0.5c-0.4-0.3-0.6-0.8-0.6-1.4c0-0.7,0.3-1.2,0.8-1.6c0.6-0.4,1.4-0.6,2.4-0.6l1.3,0v-0.5
			c0-0.7-0.1-1.2-0.4-1.5c-0.3-0.3-0.7-0.5-1.3-0.5c-0.6,0-1.3,0.2-2,0.5l-0.2-0.5c0.8-0.4,1.5-0.5,2.2-0.5c0.8,0,1.3,0.2,1.7,0.6
			c0.4,0.4,0.6,1,0.6,1.8v4.6H46.9z M44.4,101.4c0.7,0,1.3-0.2,1.7-0.6c0.4-0.4,0.6-1,0.6-1.8v-0.7l-1.2,0.1c-1,0-1.7,0.2-2.1,0.5
			c-0.4,0.3-0.6,0.7-0.6,1.2c0,0.4,0.1,0.8,0.4,1C43.5,101.3,43.9,101.4,44.4,101.4z"/>
		<path id="XMLID_83_" class="st0" d="M55.7,101.9v-4.5c0-0.7-0.1-1.2-0.4-1.5s-0.7-0.5-1.4-0.5c-0.8,0-1.4,0.2-1.8,0.6
			c-0.4,0.4-0.6,1.1-0.6,2v3.8h-0.6V95h0.5l0.1,0.9h0c0.4-0.7,1.2-1.1,2.4-1.1c1.6,0,2.3,0.8,2.3,2.5v4.5H55.7z"/>
		<path id="XMLID_85_" class="st0" d="M61.7,101.4c0.4,0,0.7,0,1-0.1v0.5c-0.3,0.1-0.7,0.2-1.1,0.2c-0.6,0-1.1-0.2-1.3-0.5
			c-0.3-0.3-0.4-0.8-0.4-1.5v-4.5h-1v-0.4l1-0.3l0.3-1.6h0.3V95h2v0.5h-2v4.4c0,0.5,0.1,0.9,0.3,1.2S61.3,101.4,61.7,101.4z"/>
		<path id="XMLID_87_" class="st0" d="M68.2,94.8c0.3,0,0.6,0,0.9,0.1l-0.1,0.6c-0.3-0.1-0.6-0.1-0.9-0.1c-0.6,0-1.1,0.2-1.4,0.7
			c-0.4,0.5-0.6,1.1-0.6,1.9v3.8h-0.6V95h0.5l0.1,1.2h0c0.3-0.5,0.6-0.9,0.9-1.1S67.8,94.8,68.2,94.8z"/>
		<path id="XMLID_89_" class="st0" d="M70.7,95h0.6l1.5,3.9c0.4,1.2,0.7,2,0.8,2.4h0c0.2-0.5,0.5-1.4,0.9-2.4L76,95h0.6l-3.1,8
			c-0.2,0.7-0.5,1.1-0.6,1.3s-0.4,0.4-0.6,0.5c-0.2,0.1-0.5,0.2-0.8,0.2c-0.2,0-0.5,0-0.8-0.1v-0.5c0.2,0.1,0.5,0.1,0.8,0.1
			c0.2,0,0.4-0.1,0.6-0.2s0.3-0.3,0.4-0.5c0.1-0.2,0.3-0.6,0.5-1c0.2-0.5,0.3-0.8,0.3-0.9L70.7,95z"/>
		<path id="XMLID_91_" class="st0" d="M84,101.9v-9.3h0.6v9.3H84z"/>
		<path id="XMLID_93_" class="st0" d="M92.7,100.1c0,0.6-0.2,1.1-0.7,1.4c-0.5,0.3-1.1,0.5-2,0.5c-0.9,0-1.7-0.1-2.2-0.4v-0.7
			c0.7,0.3,1.4,0.5,2.2,0.5c0.7,0,1.2-0.1,1.6-0.3c0.4-0.2,0.5-0.5,0.5-0.9c0-0.3-0.1-0.6-0.4-0.9c-0.3-0.2-0.7-0.5-1.4-0.7
			c-0.7-0.3-1.2-0.5-1.5-0.6s-0.5-0.4-0.6-0.6c-0.1-0.2-0.2-0.5-0.2-0.8c0-0.5,0.2-0.9,0.7-1.2c0.4-0.3,1-0.5,1.8-0.5
			c0.7,0,1.5,0.1,2.1,0.4l-0.2,0.6c-0.7-0.3-1.3-0.4-1.9-0.4c-0.6,0-1,0.1-1.3,0.3c-0.3,0.2-0.5,0.4-0.5,0.8c0,0.4,0.1,0.6,0.4,0.9
			c0.3,0.2,0.8,0.5,1.5,0.7c0.6,0.2,1.1,0.4,1.4,0.6c0.3,0.2,0.5,0.4,0.6,0.6C92.6,99.5,92.7,99.8,92.7,100.1z"/>
		<path id="XMLID_95_" class="st0" d="M96.4,101.9h-0.6V92h0.6V101.9z"/>
		<path id="XMLID_97_" class="st0" d="M104.2,101.9l-0.2-1.1H104c-0.3,0.4-0.7,0.8-1.1,0.9c-0.4,0.2-0.8,0.3-1.3,0.3
			c-0.7,0-1.2-0.2-1.6-0.5c-0.4-0.3-0.6-0.8-0.6-1.4c0-0.7,0.3-1.2,0.8-1.6c0.6-0.4,1.4-0.6,2.4-0.6l1.3,0v-0.5
			c0-0.7-0.1-1.2-0.4-1.5c-0.3-0.3-0.7-0.5-1.3-0.5c-0.6,0-1.3,0.2-2,0.5l-0.2-0.5c0.8-0.4,1.5-0.5,2.2-0.5c0.8,0,1.3,0.2,1.7,0.6
			c0.4,0.4,0.6,1,0.6,1.8v4.6H104.2z M101.6,101.4c0.7,0,1.3-0.2,1.7-0.6c0.4-0.4,0.6-1,0.6-1.8v-0.7l-1.2,0.1c-1,0-1.7,0.2-2.1,0.5
			c-0.4,0.3-0.6,0.7-0.6,1.2c0,0.4,0.1,0.8,0.4,1C100.8,101.3,101.2,101.4,101.6,101.4z"/>
		<path id="XMLID_100_" class="st0" d="M113,101.9v-4.5c0-0.7-0.1-1.2-0.4-1.5s-0.7-0.5-1.4-0.5c-0.8,0-1.4,0.2-1.8,0.6
			s-0.6,1.1-0.6,2v3.8h-0.6V95h0.5l0.1,0.9h0c0.4-0.7,1.2-1.1,2.4-1.1c1.6,0,2.3,0.8,2.3,2.5v4.5H113z"/>
		<path id="XMLID_102_" class="st0" d="M119.7,94.8c0.5,0,0.9,0.1,1.3,0.3c0.4,0.2,0.7,0.5,1,0.9h0c0-0.5,0-1.1,0-1.6V92h0.6v9.9
			h-0.4l-0.2-1.1h-0.1c-0.5,0.8-1.3,1.2-2.3,1.2c-1,0-1.7-0.3-2.2-0.9c-0.5-0.6-0.8-1.5-0.8-2.6c0-1.2,0.2-2.1,0.7-2.7
			C118,95.2,118.7,94.8,119.7,94.8z M119.7,95.4c-0.8,0-1.3,0.3-1.7,0.8c-0.4,0.5-0.6,1.3-0.6,2.3c0,2,0.8,2.9,2.3,2.9
			c0.8,0,1.4-0.2,1.7-0.7c0.4-0.5,0.5-1.2,0.5-2.2v-0.1c0-1.1-0.2-1.8-0.5-2.3S120.5,95.4,119.7,95.4z"/>
		<path id="XMLID_105_" class="st0" d="M133.4,101.9h-0.7v-8.7h-3v-0.6h6.7v0.6h-3V101.9z"/>
		<path id="XMLID_107_" class="st0" d="M144.7,98.4c0,1.1-0.3,2-0.8,2.6s-1.3,0.9-2.3,0.9c-0.6,0-1.1-0.1-1.6-0.4s-0.8-0.7-1.1-1.3
			c-0.2-0.5-0.4-1.2-0.4-1.9c0-1.1,0.3-2,0.8-2.6c0.5-0.6,1.3-0.9,2.2-0.9c0.9,0,1.7,0.3,2.2,1C144.4,96.4,144.7,97.3,144.7,98.4z
			 M139.2,98.4c0,0.9,0.2,1.7,0.6,2.2s1,0.8,1.8,0.8s1.4-0.3,1.8-0.8s0.6-1.3,0.6-2.2c0-1-0.2-1.7-0.6-2.2c-0.4-0.5-1-0.8-1.8-0.8
			s-1.3,0.3-1.8,0.8C139.4,96.7,139.2,97.5,139.2,98.4z"/>
		<path id="XMLID_110_" class="st0" d="M148.4,95v4.5c0,0.7,0.1,1.2,0.4,1.5c0.3,0.3,0.7,0.5,1.4,0.5c0.8,0,1.4-0.2,1.8-0.6
			c0.4-0.4,0.6-1.1,0.6-2V95h0.6v6.9h-0.5l-0.1-1h0c-0.4,0.7-1.2,1.1-2.4,1.1c-1.6,0-2.4-0.8-2.4-2.5V95H148.4z"/>
		<path id="XMLID_112_" class="st0" d="M159.6,94.8c0.3,0,0.6,0,0.9,0.1l-0.1,0.6c-0.3-0.1-0.6-0.1-0.9-0.1c-0.6,0-1.1,0.2-1.4,0.7
			c-0.4,0.5-0.6,1.1-0.6,1.9v3.8h-0.6V95h0.5l0.1,1.2h0c0.3-0.5,0.6-0.9,0.9-1.1S159.1,94.8,159.6,94.8z"/>
		<path id="XMLID_114_" class="st0" d="M167.5,100.1c0,0.6-0.2,1.1-0.7,1.4c-0.5,0.3-1.1,0.5-2,0.5c-0.9,0-1.7-0.1-2.2-0.4v-0.7
			c0.7,0.3,1.4,0.5,2.2,0.5c0.7,0,1.2-0.1,1.6-0.3s0.5-0.5,0.5-0.9c0-0.3-0.1-0.6-0.4-0.9c-0.3-0.2-0.7-0.5-1.4-0.7
			c-0.7-0.3-1.2-0.5-1.5-0.6s-0.5-0.4-0.6-0.6s-0.2-0.5-0.2-0.8c0-0.5,0.2-0.9,0.7-1.2c0.4-0.3,1-0.5,1.8-0.5c0.7,0,1.5,0.1,2.1,0.4
			l-0.2,0.6c-0.7-0.3-1.3-0.4-1.9-0.4c-0.6,0-1,0.1-1.3,0.3c-0.3,0.2-0.5,0.4-0.5,0.8c0,0.4,0.1,0.6,0.4,0.9s0.8,0.5,1.5,0.7
			c0.6,0.2,1.1,0.4,1.4,0.6c0.3,0.2,0.5,0.4,0.6,0.6S167.5,99.8,167.5,100.1z"/>
	</g>
	<path id="XMLID_5_" class="st1" d="M21.5,62.7c16.3-24.1,43.9-40,75.2-40s58.9,15.9,75.2,40h8.3c-17.1-28.2-48.1-47-83.5-47
		s-66.4,18.8-83.5,47H21.5z"/>
</g>
</svg>
