<?xml version="1.0" encoding="utf-8"?>
<!-- Generator: Adobe Illustrator 19.0.0, SVG Export Plug-In . SVG Version: 6.00 Build 0)  -->
<svg version="1.1" id="Layer_1" xmlns="http://www.w3.org/2000/svg" xmlns:xlink="http://www.w3.org/1999/xlink" x="0px" y="0px"
	 viewBox="0 0 413.2 326" style="enable-background:new 0 0 413.2 326;" xml:space="preserve">
<style type="text/css">
	.st0{fill:none;stroke:#A01111;stroke-width:5;stroke-miterlimit:10;}
	.st1{fill:#FFFFFF;}
</style>
<path class="st0" d="M92.7,119C112.9,76.7,156,47.5,206,47.5s93.1,29.2,113.3,71.5h48.4C345.2,51.3,281.3,2.5,206,2.5
	S66.8,51.3,44.2,119H92.7z"/>
<path class="st0" d="M319.3,207c-20.2,42.3-63.3,71.5-113.3,71.5S112.9,249.3,92.7,207H44.2c22.6,67.7,86.5,116.5,161.8,116.5
	S345.2,274.7,367.8,207H319.3z"/>
<g>
	<path class="st1" d="M32,165h-7.8v-20.8l-5.7,13.4h-5.4l-5.7-13.4V165H0v-31.3h9.1l6.9,15.5l6.9-15.5H32V165z"/>
	<path class="st1" d="M35.1,165l10.6-31.3h8.6L64.9,165h-8.1l-2-6.4H45l-2,6.4H35.1z M53.1,152.9l-3.2-10.3l-3.2,10.3H53.1z"/>
	<path class="st1" d="M97,165h-9.6l-8.7-11.5h-2.8V165H68v-31.3h12.6c1.7,0,3.3,0.1,4.5,0.3c1.3,0.2,2.5,0.7,3.6,1.4
		c1.1,0.7,2,1.6,2.7,2.7s1,2.5,1,4.2c0,2.4-0.5,4.3-1.6,5.8c-1.1,1.5-2.5,2.7-4.3,3.6L97,165z M84.3,143.3c0-0.8-0.2-1.5-0.5-2
		c-0.3-0.6-0.8-1-1.5-1.3c-0.5-0.2-1-0.3-1.6-0.4s-1.4-0.1-2.3-0.1h-2.6v8.4h2.3c1.1,0,2-0.1,2.8-0.2c0.8-0.1,1.4-0.4,1.9-0.9
		c0.5-0.4,0.9-0.9,1.1-1.4C84.2,144.9,84.3,144.1,84.3,143.3z"/>
	<path class="st1" d="M114.9,165H98v-5.5h4.5v-20.4H98v-5.5h16.9v5.5h-4.5v20.4h4.5V165z"/>
	<path class="st1" d="M146.9,165h-7.6l-12.1-21.8V165h-7.2v-31.3h9.7l10,17.9v-17.9h7.2V165z"/>
	<path class="st1" d="M153.3,165v-31.3h21.2v6h-13.4v5.5h12.3v6h-12.3v7.9h13.4v6H153.3z"/>
	<path class="st1" d="M218.9,165H211v-13.9h-10.7V165h-7.9v-31.3h7.9v11.5H211v-11.5h7.9V165z"/>
	<path class="st1" d="M225.4,165v-31.3h21.2v6h-13.4v5.5h12.3v6h-12.3v7.9h13.4v6H225.4z"/>
	<path class="st1" d="M280.8,165h-9.6l-8.7-11.5h-2.8V165h-7.8v-31.3h12.6c1.7,0,3.3,0.1,4.5,0.3c1.3,0.2,2.5,0.7,3.6,1.4
		c1.1,0.7,2,1.6,2.7,2.7s1,2.5,1,4.2c0,2.4-0.5,4.3-1.6,5.8c-1.1,1.5-2.5,2.7-4.3,3.6L280.8,165z M268.2,143.3c0-0.8-0.2-1.5-0.5-2
		c-0.3-0.6-0.8-1-1.5-1.3c-0.5-0.2-1-0.3-1.6-0.4c-0.6-0.1-1.4-0.1-2.3-0.1h-2.6v8.4h2.3c1.1,0,2-0.1,2.8-0.2
		c0.8-0.1,1.4-0.4,1.9-0.9c0.5-0.4,0.9-0.9,1.1-1.4C268.1,144.9,268.2,144.1,268.2,143.3z"/>
	<path class="st1" d="M298.8,165h-16.9v-5.5h4.5v-20.4h-4.5v-5.5h16.9v5.5h-4.5v20.4h4.5V165z"/>
	<path class="st1" d="M310,165v-25.4h-9.3v-6h26.4v6h-9.3V165H310z"/>
	<path class="st1" d="M327,165l10.6-31.3h8.6l10.6,31.3h-8.1l-2-6.4h-9.8l-2,6.4H327z M345,152.9l-3.2-10.3l-3.2,10.3H345z"/>
	<path class="st1" d="M386.1,163.2c-1.4,0.6-3.2,1.1-5.4,1.6c-2.2,0.5-4.4,0.8-6.5,0.8c-4.9,0-8.8-1.4-11.8-4.3
		c-2.9-2.8-4.4-6.9-4.4-12.1c0-4.9,1.5-8.8,4.4-11.8c2.9-3,6.9-4.4,12-4.4c2.6,0,4.8,0.2,6.4,0.7c1.6,0.5,3.3,1.2,5.1,2v7.3h-0.7
		c-0.4-0.3-0.9-0.7-1.6-1.3c-0.7-0.5-1.4-1-2.1-1.4c-0.8-0.4-1.7-0.8-2.7-1.2c-1-0.3-2.1-0.5-3.3-0.5c-1.3,0-2.6,0.2-3.7,0.6
		c-1.1,0.4-2.1,1.1-3,1.9c-0.8,0.8-1.5,1.9-2,3.2c-0.5,1.3-0.7,2.8-0.7,4.5c0,3.7,0.9,6.4,2.8,8.1s4.3,2.6,7.5,2.6c0.3,0,0.6,0,1,0
		s0.7,0,1-0.1v-6.1h-6.1v-5.9h13.7V163.2z"/>
	<path class="st1" d="M392,165v-31.3h21.2v6h-13.4v5.5h12.3v6h-12.3v7.9h13.4v6H392z"/>
	<path class="st1" d="M123,217.3c-2.4,0-4.5-0.2-6.3-0.7c-1.8-0.5-3.5-1-5.1-1.7v-7.4h0.7c1.6,1.3,3.3,2.4,5.2,3.1
		c1.9,0.7,3.7,1.1,5.5,1.1c0.4,0,1,0,1.8-0.1c0.7-0.1,1.3-0.3,1.8-0.5c0.5-0.2,1-0.6,1.4-1c0.4-0.4,0.6-1,0.6-1.7
		c0-0.8-0.3-1.4-0.9-1.9s-1.4-0.8-2.2-1.1c-1.1-0.3-2.2-0.5-3.4-0.8c-1.2-0.3-2.3-0.6-3.4-0.9c-2.4-0.9-4.2-2-5.2-3.5
		c-1.1-1.4-1.6-3.3-1.6-5.4c0-2.9,1.2-5.3,3.7-7.1c2.5-1.8,5.6-2.7,9.3-2.7c1.9,0,3.7,0.2,5.6,0.6c1.8,0.4,3.5,0.9,5,1.5v7.2h-0.7
		c-1.2-1-2.6-1.8-4.3-2.5c-1.7-0.7-3.4-1-5.2-1c-0.7,0-1.3,0-1.9,0.1c-0.5,0.1-1.1,0.3-1.7,0.6c-0.5,0.2-0.9,0.6-1.3,1
		c-0.4,0.4-0.5,0.9-0.5,1.5c0,0.8,0.3,1.4,0.9,1.9c0.6,0.5,1.7,0.9,3.3,1.3c1.1,0.2,2.1,0.5,3,0.7c1,0.2,2,0.5,3.1,0.9
		c2.2,0.8,3.8,1.8,4.8,3.2c1.1,1.3,1.6,3.1,1.6,5.2c0,3.1-1.2,5.6-3.7,7.5S127.2,217.3,123,217.3z"/>
	<path class="st1" d="M169.1,201.1c0,5.1-1.4,9-4.1,12c-2.7,2.9-6.4,4.4-11.1,4.4c-4.7,0-8.4-1.5-11.1-4.4c-2.7-2.9-4-6.9-4-11.9
		c0-5,1.3-9,4-11.9c2.7-2.9,6.4-4.4,11.1-4.4c4.7,0,8.4,1.5,11.1,4.4C167.8,192,169.1,196,169.1,201.1z M161,201
		c0-1.9-0.2-3.5-0.6-4.8s-0.9-2.4-1.5-3.2c-0.7-0.9-1.4-1.5-2.3-1.8c-0.8-0.4-1.7-0.6-2.6-0.6c-1,0-1.8,0.2-2.6,0.5s-1.5,1-2.3,1.8
		c-0.6,0.8-1.2,1.9-1.6,3.2c-0.4,1.3-0.6,3-0.6,4.8c0,1.9,0.2,3.5,0.6,4.8c0.4,1.3,0.9,2.3,1.6,3.2c0.7,0.9,1.4,1.5,2.3,1.9
		c0.9,0.4,1.7,0.6,2.7,0.6c0.9,0,1.8-0.2,2.7-0.6c0.9-0.4,1.6-1,2.3-1.9c0.7-0.9,1.2-2,1.6-3.2C160.8,204.6,161,203,161,201z"/>
	<path class="st1" d="M187.3,217.3c-4.7,0-8.4-1.4-11.2-4.3c-2.8-2.8-4.1-6.8-4.1-12c0-5,1.4-8.9,4.2-11.9c2.8-3,6.5-4.4,11.2-4.4
		c1.2,0,2.4,0.1,3.4,0.2c1,0.1,1.9,0.3,2.9,0.6c0.7,0.2,1.5,0.5,2.3,0.9c0.8,0.4,1.5,0.7,2,0.9v7.5h-0.8c-0.4-0.3-0.9-0.7-1.4-1.2
		c-0.6-0.5-1.2-0.9-2-1.4c-0.7-0.4-1.5-0.8-2.4-1.1s-1.8-0.5-2.7-0.5c-1.1,0-2.2,0.2-3.1,0.5c-0.9,0.4-1.8,1-2.7,1.9
		c-0.8,0.8-1.4,1.9-1.9,3.2c-0.5,1.4-0.7,3-0.7,4.8c0,2,0.3,3.6,0.8,4.9c0.5,1.3,1.2,2.4,2,3.2c0.8,0.8,1.7,1.4,2.7,1.7
		c1,0.4,2,0.5,3,0.5c1,0,2-0.2,3-0.5c0.9-0.3,1.7-0.7,2.4-1.1c0.7-0.4,1.3-0.9,1.9-1.3c0.5-0.4,1-0.8,1.4-1.2h0.7v7.4
		c-0.6,0.3-1.2,0.6-2,0.9s-1.5,0.6-2.3,0.9c-1,0.3-1.9,0.5-2.8,0.7C190,217.2,188.8,217.3,187.3,217.3z"/>
	<path class="st1" d="M218.2,216.7h-16.9v-5.5h4.5v-20.4h-4.5v-5.5h16.9v5.5h-4.5v20.4h4.5V216.7z"/>
	<path class="st1" d="M223.4,216.7v-31.3h21.2v6h-13.4v5.5h12.3v6h-12.3v7.9h13.4v6H223.4z"/>
	<path class="st1" d="M255.9,216.7v-25.4h-9.3v-6H273v6h-9.3v25.4H255.9z"/>
	<path class="st1" d="M302.3,185.4l-10.8,18.2v13.1h-7.9V204l-11-18.6h9l6.1,11.2l5.9-11.2H302.3z"/>
</g>
<g>
	<g>
		<path class="st1" d="M86.8,258.5c4.9-4.7,7.3-7,12.2-11.6c-2.2-2.3-3.2-3.4-5.3-5.8c0.7-0.6,1-0.9,1.7-1.5
			c4.9,5.7,7.4,8.3,12.8,13.2c-0.6,0.7-0.9,1-1.5,1.7c-2.3-2.1-3.4-3.1-5.6-5.4c-4.8,4.8-7.2,7.1-12,11.9
			C88.3,260,87.8,259.5,86.8,258.5z"/>
		<path class="st1" d="M103.2,274c-2.4-1.9-3.7-3.9-4.1-6c-0.4-2.1,0.2-4,1.8-5.7c1.6-1.7,3.4-2.6,5.4-2.7c2-0.1,3.9,0.7,5.8,2.2
			c0.8,0.7,1.5,1.4,2,2.1c0.5,0.7,0.8,1.5,1,2.3c0.2,0.8,0.1,1.6-0.1,2.5c-0.2,0.8-0.6,1.7-1.3,2.6c-0.3,0.4-0.5,0.6-0.8,1.1
			c-4-3-6-4.5-9.8-7.8c-1.1,1.3-1.5,2.6-1.3,4c0.3,1.4,1.1,2.7,2.7,3.9c0.5,0.4,1.1,0.8,1.7,1.1c0.6,0.3,1.2,0.6,1.7,0.7
			c0.6,0.2,1.1,0.3,1.5,0.4c0.4,0.1,0.8,0.1,1.1,0.2c0.1,0,0.1,0.1,0.1,0.1c-0.6,0.8-0.9,1.3-1.6,2.1c-0.4-0.1-0.8-0.3-1.4-0.5
			c-0.5-0.2-1-0.4-1.4-0.6c-0.6-0.3-1.1-0.5-1.5-0.8C104.3,274.9,103.8,274.5,103.2,274z M111.7,269.1c0.4-0.5,0.6-1,0.8-1.5
			c0.2-0.5,0.2-0.9,0.2-1.4c-0.1-0.5-0.2-1-0.5-1.5c-0.3-0.5-0.8-1-1.4-1.5c-0.6-0.5-1.2-0.8-1.7-1c-0.5-0.2-1.1-0.3-1.7-0.3
			c-0.6,0-1.1,0.1-1.6,0.3c-0.5,0.2-0.9,0.5-1.4,0.9C107.2,265.6,108.7,266.8,111.7,269.1z"/>
		<path class="st1" d="M132.3,292.3c1.5-3,2.2-4.5,3.7-7.4c0.3-0.6,0.5-1.2,0.7-1.7c0.2-0.5,0.3-1,0.2-1.3c0-0.4-0.2-0.8-0.4-1.1
			c-0.3-0.3-0.7-0.6-1.2-0.9c-0.5-0.3-1.2-0.4-1.9-0.5c-0.7-0.1-1.6,0-2.5,0.1c-0.1,0.1-0.1,0.3-0.2,0.5c-0.1,0.2-0.2,0.4-0.3,0.6
			c-1.8,3.3-2.8,5-4.6,8.3c-1.1-0.6-1.6-0.9-2.7-1.5c1.7-2.9,2.5-4.3,4.2-7.2c0.3-0.6,0.6-1.1,0.8-1.6c0.2-0.5,0.3-1,0.3-1.3
			c0-0.4-0.1-0.8-0.4-1.1c-0.2-0.3-0.6-0.7-1.2-1c-0.5-0.3-1.2-0.5-1.9-0.6c-0.8-0.1-1.5-0.1-2.4,0c-2.3,3.6-3.5,5.4-5.8,9
			c-1.1-0.7-1.6-1-2.6-1.7c3.2-4.8,4.8-7.2,8-11.9c1,0.6,1.4,1,2.4,1.6c-0.3,0.5-0.5,0.8-0.9,1.3c1-0.1,1.9-0.1,2.7,0
			c0.8,0.1,1.6,0.4,2.3,0.8c0.9,0.5,1.5,1.1,2,1.8c0.5,0.7,0.7,1.6,0.6,2.5c1.2-0.3,2.2-0.4,3.1-0.4c0.9,0,1.8,0.2,2.6,0.7
			c0.6,0.3,1.2,0.7,1.6,1.1c0.4,0.4,0.8,0.9,1,1.5c0.2,0.6,0.3,1.2,0.2,1.9c-0.1,0.7-0.3,1.5-0.7,2.4c-1.6,3.4-2.4,5.1-4.1,8.5
			C134,293.1,133.4,292.9,132.3,292.3z"/>
		<path class="st1" d="M158.7,294.8c-0.7,2.3-2,3.9-3.8,4.8c-1.8,0.9-3.8,1-5.9,0.2c-0.8-0.3-1.6-0.7-2.2-1.1
			c-0.6-0.4-1.2-0.9-1.7-1.5c-0.9,2.2-1.3,3.4-2.2,5.6c-1.2-0.5-1.8-0.7-2.9-1.2c3.1-7.2,4.6-10.9,7.6-18.1c1,0.4,1.6,0.6,2.6,1.1
			c-0.2,0.6-0.3,0.8-0.6,1.4c0.9-0.2,1.7-0.4,2.7-0.4c0.9,0,1.8,0.1,2.8,0.4c1.8,0.6,3,1.7,3.6,3.3
			C159.4,290.9,159.4,292.8,158.7,294.8z M155.8,294.2c0.5-1.6,0.6-2.9,0.3-3.9c-0.3-1.1-1.1-1.8-2.4-2.3c-0.8-0.3-1.5-0.4-2.3-0.4
			c-0.8,0-1.6,0.1-2.4,0.3c-1.2,3-1.8,4.5-3,7.6c0.6,0.6,1.2,1,1.7,1.3c0.5,0.3,1.1,0.6,1.8,0.8c1.5,0.5,2.8,0.5,3.9-0.1
			S155.2,295.8,155.8,294.2z"/>
		<path class="st1" d="M178.4,300.1c-0.4,2.4-1.4,4.1-3.1,5.1c-1.7,1-3.7,1.3-6.1,0.7c-2.5-0.6-4.2-1.7-5.2-3.4
			c-1-1.7-1.2-3.6-0.6-5.9c0.7-2.3,1.8-3.9,3.5-4.8c1.7-0.9,3.5-1.1,5.7-0.6c2.2,0.5,3.8,1.5,4.8,3
			C178.5,295.7,178.8,297.7,178.4,300.1z M175.5,299.5c0.4-1.8,0.2-3.3-0.4-4.3c-0.6-1-1.6-1.7-3-2c-1.4-0.3-2.6-0.2-3.6,0.5
			s-1.7,1.9-2.2,3.7c-0.5,1.7-0.4,3.2,0.2,4.3c0.6,1.1,1.7,1.8,3.2,2.2c1.5,0.3,2.8,0.1,3.8-0.6
			C174.4,302.6,175.1,301.3,175.5,299.5z"/>
		<path class="st1" d="M193.9,297.4c-0.1,0-0.1,0-0.1,0c-0.2-0.1-0.4-0.1-0.7-0.2c-0.2,0-0.5-0.1-0.8-0.1c-0.8-0.1-1.5,0-2.3,0.2
			c-0.8,0.2-1.5,0.5-2.3,1c-0.5,4-0.7,6.1-1.2,10.1c-1.2-0.1-1.8-0.2-3-0.4c0.8-5.7,1.2-8.5,2-14.2c1.1,0.2,1.6,0.2,2.7,0.4
			c-0.1,0.8-0.2,1.3-0.3,2.1c1.1-0.7,2-1.1,2.8-1.4c0.8-0.2,1.5-0.3,2.2-0.3c0.3,0,0.5,0,0.6,0.1c0.1,0,0.3,0.1,0.5,0.1
			C194,295.9,194,296.4,193.9,297.4z"/>
		<path class="st1" d="M208.1,308.1c-0.2,0.1-0.6,0.4-1,0.6c-0.4,0.3-0.8,0.5-1.2,0.6c-0.5,0.2-1.1,0.4-1.6,0.5
			c-0.5,0.1-1.2,0.2-2.1,0.1c-0.7,0-1.4-0.1-2.1-0.4c-0.7-0.2-1.2-0.6-1.7-1c-0.5-0.4-0.8-0.9-1.1-1.5c-0.3-0.6-0.4-1.2-0.3-1.9
			c0.1-1,0.4-1.8,0.9-2.5c0.5-0.7,1.4-1.2,2.5-1.6c1-0.3,2.1-0.6,3.4-0.7c1.3-0.1,2.7-0.2,4.2-0.3c0-0.2,0-0.3,0-0.5
			c0-0.6-0.1-1-0.3-1.4c-0.2-0.3-0.5-0.6-0.8-0.8c-0.4-0.2-0.8-0.3-1.3-0.4c-0.5-0.1-1-0.1-1.6-0.1c-0.6,0-1.4,0.1-2.3,0.2
			c-0.9,0.1-1.8,0.4-2.7,0.6c-0.1,0-0.1,0-0.2,0c0-1,0.1-1.5,0.1-2.5c0.5-0.1,1.3-0.2,2.2-0.3c1-0.1,1.9-0.2,2.8-0.2
			c1.1,0,2.1,0.1,2.8,0.2c0.8,0.2,1.5,0.4,2.1,0.8c0.6,0.4,1.1,0.9,1.4,1.5c0.3,0.6,0.5,1.4,0.5,2.3c0.1,3.9,0.2,5.9,0.3,9.8
			c-1.2,0-1.8,0-3,0.1C208.1,309,208.1,308.7,208.1,308.1z M208,306.1c0-1.6,0-2.4-0.1-4c-0.7,0.1-1.6,0.1-2.6,0.2
			c-1.1,0.1-1.9,0.2-2.6,0.3c-0.8,0.2-1.4,0.5-1.9,0.9c-0.5,0.4-0.8,0.9-0.8,1.7c0,0.8,0.2,1.5,0.8,1.9c0.6,0.4,1.4,0.7,2.5,0.7
			c0.9,0,1.8-0.1,2.6-0.5S207.4,306.6,208,306.1z"/>
		<path class="st1" d="M226.5,296.5c-0.1,0-0.1,0-0.1,0c-0.2,0-0.4,0-0.7,0c-0.2,0-0.5,0-0.8,0.1c-0.8,0.1-1.5,0.3-2.2,0.7
			c-0.7,0.4-1.4,0.9-2,1.5c0.4,4.1,0.6,6.1,1,10.1c-1.2,0.1-1.8,0.2-3,0.3c-0.4-5.7-0.7-8.6-1.1-14.3c1.1-0.1,1.7-0.1,2.8-0.2
			c0.1,0.9,0.1,1.3,0.2,2.1c0.9-0.9,1.8-1.5,2.5-1.9c0.7-0.4,1.4-0.6,2.1-0.7c0.3,0,0.5-0.1,0.6-0.1c0.1,0,0.3,0,0.5,0
			C226.3,295,226.4,295.5,226.5,296.5z"/>
		<path class="st1" d="M243.9,290.5c-1.5,8.5-2.4,12.8-4.8,21.3c-1.3,0.3-2,0.4-3.3,0.6c0.9-2.6,1.3-3.9,2.1-6.5
			c-3.6-4.9-5.3-7.3-8.6-12.4c1.2-0.2,1.8-0.3,2.9-0.5c2.5,3.9,3.8,5.8,6.6,9.6c1-4.6,1.4-6.8,2.2-11.4
			C242.3,290.9,242.8,290.7,243.9,290.5z"/>
		<path class="st1" d="M279.1,292.6c-5.1,2.5-7.7,3.7-12.9,5.7c-2.8-7.1-4.2-10.7-7-17.8c1.1-0.4,1.6-0.6,2.6-1.1
			c2.6,6.2,3.9,9.4,6.5,15.6c4-1.6,5.9-2.5,9.8-4.4C278.5,291.4,278.7,291.8,279.1,292.6z"/>
		<path class="st1" d="M293.3,276.1c1.3,2,1.8,4,1.2,5.9c-0.5,1.9-1.9,3.6-4,4.8c-2.2,1.3-4.3,1.7-6.3,1.2c-1.9-0.5-3.4-1.8-4.5-3.9
			c-1.1-2.1-1.4-4.1-0.8-5.9c0.6-1.8,1.8-3.3,3.8-4.5c2-1.2,3.8-1.6,5.7-1.2C290.3,273,291.9,274.1,293.3,276.1z M290.7,277.8
			c-1-1.6-2.1-2.5-3.3-2.8c-1.2-0.3-2.4-0.1-3.7,0.7c-1.3,0.8-2.1,1.7-2.3,2.9c-0.3,1.2,0,2.6,0.9,4.2c0.9,1.6,1.9,2.6,3.1,3
			s2.5,0.2,3.9-0.7c1.4-0.8,2.2-1.9,2.4-3.1C292,280.8,291.6,279.4,290.7,277.8z"/>
		<path class="st1" d="M304.6,279.8c0.2-0.1,0.5-0.2,0.9-0.3c0.4-0.2,0.9-0.4,1.3-0.6c0.5-0.3,1-0.5,1.5-0.8
			c0.4-0.3,0.9-0.6,1.4-0.9c0.8-0.6,1.4-1.2,1.8-1.8c0.4-0.6,0.7-1.2,0.7-1.7c0.1-0.5,0-1-0.2-1.4c-0.2-0.5-0.5-0.9-0.8-1.4
			c-0.3-0.4-0.5-0.6-0.8-1c-0.3,1-0.7,1.8-1.1,2.6c-0.5,0.7-1.2,1.5-2.2,2.2c-1.7,1.3-3.4,1.9-5.2,1.6c-1.7-0.2-3.2-1.3-4.6-3.2
			c-0.7-1-1.1-2-1.3-2.9c-0.2-1-0.2-1.9-0.1-2.9c0.2-0.9,0.5-1.7,1-2.5c0.5-0.8,1.1-1.5,1.9-2.1c0.7-0.6,1.4-1,2-1.3
			c0.6-0.3,1.3-0.5,2-0.7c-0.1-0.2-0.2-0.3-0.3-0.6c0.8-0.7,1.3-1.1,2.1-1.8c3.3,3.8,5,5.8,8.4,9.6c1.6,1.8,2.2,3.7,1.9,5.5
			c-0.4,1.8-1.7,3.7-4,5.5c-0.7,0.6-1.6,1.1-2.4,1.7c-0.9,0.5-1.7,0.9-2.5,1.3c-0.6-0.8-0.9-1.2-1.5-2
			C304.5,279.8,304.5,279.8,304.6,279.8z M309.1,268.3c-2-2.4-3-3.6-5.1-6c-0.8,0.3-1.4,0.5-2,0.8c-0.6,0.3-1.1,0.6-1.6,1
			c-1.2,0.9-1.8,2-2,3.2c-0.1,1.2,0.3,2.5,1.3,3.9c1,1.3,1.9,2.1,3,2.3c1,0.2,2.2-0.1,3.4-1.1c0.6-0.5,1.2-1.1,1.7-1.9
			C308.5,269.9,308.9,269.1,309.1,268.3z"/>
		<path class="st1" d="M325.6,247.3c1.8,1.6,2.8,3.4,2.7,5.4c-0.1,2.1-1,4.1-2.8,6c-1.9,2-3.9,3-5.9,3.1c-2,0.1-3.8-0.7-5.4-2.4
			c-1.7-1.7-2.4-3.6-2.3-5.6c0.1-2,1-3.8,2.6-5.5c1.6-1.7,3.4-2.7,5.4-2.9C321.9,245.2,323.8,245.8,325.6,247.3z M323.4,249.8
			c-1.4-1.2-2.7-1.8-4-1.8s-2.4,0.6-3.5,1.8c-1.1,1.1-1.6,2.3-1.6,3.6s0.7,2.5,2,3.9c1.3,1.3,2.5,1.9,3.8,2c1.3,0,2.5-0.6,3.7-1.8
			c1.1-1.2,1.7-2.5,1.6-3.8C325.5,252.3,324.8,251,323.4,249.8z"/>
	</g>
</g>
<g>
	<g>
		<path class="st1" d="M92.1,86.8c-0.8,1.1-1.7,2-2.7,2.7c-1,0.7-1.9,1.3-3,1.6c-1,0.3-2.1,0.4-3.2,0.2c-1.1-0.2-2.2-0.6-3.2-1.3
			c-1.1-0.7-1.8-1.5-2.4-2.5c-0.5-0.9-0.8-2-0.8-3.2c0-1.1,0.2-2.4,0.7-3.6c0.5-1.2,1.2-2.5,2.1-3.7c0.5-0.6,1-1.2,1.4-1.6
			c0.5-0.5,0.9-0.9,1.4-1.3c0.4-0.3,0.8-0.6,1.3-0.9c0.4-0.3,0.9-0.6,1.4-0.8c0.7,0.6,1.1,1,1.9,1.6C87,74,86.9,74,86.9,74.1
			c-0.3,0.1-0.7,0.2-1.1,0.4c-0.4,0.2-0.9,0.4-1.5,0.7c-0.5,0.3-1.1,0.7-1.6,1.1c-0.5,0.4-1.1,1-1.6,1.7c-0.6,0.8-1.1,1.6-1.4,2.5
			c-0.3,0.9-0.5,1.7-0.4,2.6c0,0.8,0.3,1.6,0.7,2.4c0.4,0.7,1.1,1.4,1.9,2c0.9,0.6,1.7,1,2.5,1.1c0.8,0.1,1.6,0.1,2.4-0.1
			c0.8-0.2,1.5-0.5,2.2-1c0.7-0.5,1.3-1.1,1.8-1.8c0.5-0.6,0.9-1.3,1.2-1.9c0.3-0.6,0.6-1.2,0.7-1.8c0.2-0.5,0.3-1,0.4-1.5
			c0.1-0.4,0.1-0.8,0.1-1.1c0.1-0.1,0.1-0.1,0.1-0.2c0.7,0.6,1.1,0.9,1.8,1.6c-0.2,0.5-0.3,0.9-0.5,1.3c-0.2,0.4-0.4,0.9-0.6,1.4
			c-0.3,0.6-0.5,1.1-0.8,1.5C93,85.5,92.6,86.1,92.1,86.8z"/>
		<path class="st1" d="M107.9,69.1c-0.7,0.7-1.1,1-1.9,1.8c-1.8-1.9-2.7-2.8-4.5-4.7c-0.4-0.4-0.7-0.7-1.1-1
			c-0.4-0.3-0.7-0.5-1.1-0.5c-0.4-0.1-0.7,0-1.1,0.2c-0.4,0.2-0.8,0.5-1.3,1c-0.5,0.5-0.9,1.1-1.2,1.8c-0.3,0.7-0.6,1.4-0.7,2.2
			c2.5,2.4,3.7,3.5,6.2,5.9c-0.7,0.8-1.1,1.1-1.8,1.9c-4.7-4.3-7.1-6.5-11.8-10.8c0.8-0.9,1.2-1.3,2-2.1c1.7,1.6,2.5,2.4,4.2,4
			c0.2-1,0.5-1.8,0.8-2.6c0.4-0.8,0.9-1.5,1.5-2.1c1.2-1.1,2.3-1.7,3.5-1.8c1.2-0.1,2.2,0.4,3.2,1.4C104.8,65.9,105.8,67,107.9,69.1
			z"/>
		<path class="st1" d="M118.4,58.8c-0.1,0.2-0.2,0.5-0.4,0.9c-0.1,0.4-0.3,0.7-0.5,1c-0.2,0.4-0.5,0.8-0.8,1.1s-0.7,0.7-1.3,1.2
			c-0.5,0.4-1,0.7-1.5,0.9s-1.1,0.3-1.6,0.4c-0.5,0-1-0.1-1.5-0.3c-0.5-0.2-0.9-0.5-1.2-0.9c-0.5-0.6-0.8-1.3-0.8-2
			c0-0.7,0.3-1.5,0.8-2.4c0.5-0.8,1.2-1.6,2-2.4c0.9-0.8,1.8-1.7,2.9-2.6c-0.1-0.1-0.1-0.2-0.2-0.3c-0.3-0.4-0.6-0.6-0.9-0.7
			c-0.3-0.1-0.7-0.1-1,0c-0.4,0.1-0.8,0.3-1.2,0.5c-0.4,0.3-0.8,0.6-1.2,0.9c-0.5,0.4-1,0.9-1.6,1.5c-0.6,0.6-1.1,1.3-1.6,2.1
			c0,0-0.1,0.1-0.1,0.1c-0.5-0.6-0.8-0.9-1.3-1.5c0.3-0.4,0.8-1,1.4-1.6c0.6-0.7,1.3-1.3,2-1.9c0.9-0.7,1.6-1.2,2.3-1.6
			c0.7-0.4,1.4-0.6,2-0.7c0.7-0.1,1.2,0,1.8,0.2c0.5,0.2,1,0.6,1.4,1.2c1.8,2.5,2.8,3.8,4.6,6.4c-0.8,0.6-1.2,0.9-2,1.5
			C118.8,59.4,118.7,59.2,118.4,58.8z M117.4,57.5c-0.8-1-1.1-1.5-1.9-2.5c-0.5,0.4-1.1,0.9-1.8,1.6c-0.7,0.6-1.2,1.2-1.6,1.7
			c-0.4,0.6-0.7,1.1-0.9,1.6s0,1,0.3,1.5c0.4,0.5,0.9,0.7,1.5,0.7c0.6-0.1,1.2-0.4,2-1c0.6-0.5,1.1-1,1.5-1.7
			C116.9,58.8,117.2,58.1,117.4,57.5z"/>
		<path class="st1" d="M136,48.8c-0.9,0.5-1.3,0.7-2.1,1.2c-1.3-2.3-2-3.4-3.3-5.7c-0.3-0.5-0.5-0.9-0.8-1.2
			c-0.3-0.4-0.6-0.6-0.9-0.7c-0.3-0.1-0.7-0.2-1.1-0.1c-0.4,0.1-0.9,0.3-1.5,0.6c-0.6,0.3-1.1,0.8-1.5,1.4c-0.5,0.6-0.9,1.2-1.2,1.9
			c1.8,2.9,2.8,4.3,4.6,7.2c-0.8,0.5-1.2,0.8-2.1,1.3c-2.5-3.8-3.8-5.7-6.3-9.6c0.9-0.6,1.3-0.9,2.2-1.5c0.3,0.4,0.4,0.6,0.7,1.1
			c0.4-0.9,0.8-1.6,1.4-2.2c0.5-0.6,1.1-1.2,1.9-1.6c1.3-0.8,2.6-1.1,3.7-0.9c1.1,0.2,2,1,2.7,2.2C133.9,44.9,134.6,46.2,136,48.8z"
			/>
		<path class="st1" d="M145.5,44.3c-1.2,0.6-2.3,0.7-3.2,0.5c-0.9-0.2-1.7-0.9-2.3-2c-1.1-2.3-1.7-3.4-2.8-5.7
			c-0.6,0.3-0.9,0.5-1.6,0.8c-0.3-0.6-0.4-0.9-0.7-1.4c0.6-0.3,1-0.5,1.6-0.8c-0.6-1.2-0.9-1.8-1.5-3c1-0.5,1.5-0.7,2.4-1.2
			c0.6,1.2,0.8,1.8,1.4,3c1.8-0.8,2.6-1.2,4.4-2c0.3,0.6,0.4,0.9,0.6,1.5c-1.8,0.8-2.6,1.2-4.4,2c0.9,2,1.4,3,2.3,4.9
			c0.2,0.5,0.5,0.9,0.6,1.2c0.2,0.3,0.4,0.5,0.7,0.7c0.2,0.2,0.5,0.2,0.9,0.2c0.4,0,0.8-0.2,1.3-0.4c0.4-0.2,0.7-0.4,1-0.6
			c0.3-0.2,0.5-0.4,0.6-0.5c0.1,0,0.1,0,0.1-0.1c0.3,0.6,0.4,1,0.7,1.6c-0.4,0.3-0.8,0.5-1.2,0.8C146.2,43.9,145.9,44.1,145.5,44.3z
			"/>
		<path class="st1" d="M156.1,29.7c-0.1,0-0.1,0-0.1,0c-0.2,0-0.4,0.1-0.6,0.1c-0.2,0.1-0.5,0.1-0.7,0.2c-0.7,0.2-1.3,0.6-1.8,1
			c-0.6,0.4-1.1,1-1.5,1.6c1.2,3,1.7,4.6,2.9,7.6c-0.9,0.3-1.4,0.5-2.3,0.9c-1.7-4.3-2.6-6.4-4.3-10.6c1-0.4,1.5-0.6,2.4-1
			c0.2,0.6,0.4,1,0.6,1.6c0.7-0.9,1.3-1.6,1.9-2.1c0.6-0.5,1.2-0.8,1.8-1.1c0.3-0.1,0.4-0.1,0.6-0.2c0.1,0,0.3-0.1,0.4-0.1
			C155.7,28.6,155.8,29,156.1,29.7z"/>
		<path class="st1" d="M171.8,23.2c-1.9,6.8-2.6,10.3-3.8,17.1c-1,0.3-1.4,0.4-2.4,0.7c0.4-2.1,0.6-3.2,1.1-5.3
			c-3.2-3.6-4.9-5.4-8.3-8.9c1.1-0.3,1.6-0.5,2.7-0.8c2.6,2.8,3.9,4.2,6.3,7c0.6-3.7,1-5.5,1.9-9.2
			C170.2,23.5,170.8,23.4,171.8,23.2z"/>
		<path class="st1" d="M196.1,31.2c-2.9,0.2-4.4,0.3-7.4,0.7c-0.1-0.6-0.1-0.9-0.2-1.5c1-0.1,1.5-0.2,2.4-0.3
			c-0.5-4.8-0.7-7.3-1.2-12.1c-1.1,0.1-1.6,0.2-2.6,0.3c-0.1-0.6-0.1-0.9-0.2-1.5c3.2-0.4,4.9-0.5,8.1-0.8c0,0.6,0.1,0.9,0.1,1.6
			c-1.1,0.1-1.6,0.1-2.6,0.2c0.4,4.8,0.6,7.3,1,12.1c1-0.1,1.5-0.1,2.4-0.2C196.1,30.3,196.1,30.6,196.1,31.2z"/>
		<path class="st1" d="M205.3,31.2c-1,0-1.8-0.1-2.7-0.3c-0.8-0.2-1.5-0.4-2.1-0.6c0-0.9,0-1.3-0.1-2.2c0.1,0,0.1,0,0.1,0
			c0.2,0.1,0.5,0.3,0.7,0.4c0.3,0.1,0.7,0.3,1.1,0.5c0.4,0.1,0.9,0.3,1.4,0.4c0.5,0.1,1,0.2,1.5,0.2c0.4,0,0.8,0,1.2-0.1
			c0.4-0.1,0.8-0.2,1-0.3c0.3-0.2,0.5-0.3,0.7-0.5c0.1-0.2,0.2-0.4,0.2-0.8c0-0.5-0.1-0.8-0.5-1c-0.3-0.2-0.9-0.4-1.7-0.6
			c-0.3-0.1-0.7-0.1-1.2-0.2c-0.5-0.1-1-0.2-1.4-0.3c-1.1-0.2-2-0.6-2.5-1.1c-0.5-0.5-0.8-1.1-0.8-1.9c0-1,0.4-1.9,1.5-2.6
			c1-0.7,2.4-1,4.2-1c0.9,0,1.7,0.1,2.6,0.3c0.9,0.2,1.6,0.4,2.2,0.6c0,0.8,0,1.2-0.1,2.1c-0.1,0-0.1,0-0.1,0
			c-0.6-0.4-1.4-0.7-2.2-1c-0.8-0.2-1.6-0.4-2.4-0.4c-0.8,0-1.6,0.1-2.1,0.4c-0.6,0.3-0.9,0.7-0.8,1.2c0,0.5,0.2,0.8,0.5,1.1
			c0.3,0.2,0.9,0.4,1.6,0.6c0.4,0.1,0.8,0.1,1.2,0.2c0.5,0.1,0.9,0.2,1.4,0.3c1.1,0.2,1.9,0.6,2.5,1.1s0.8,1.2,0.8,2
			c0,0.5-0.2,1-0.4,1.4c-0.3,0.4-0.6,0.8-1.1,1.1c-0.5,0.3-1.1,0.6-1.7,0.7C207.1,31.1,206.3,31.2,205.3,31.2z"/>
		<path class="st1" d="M218.1,31.4c-1-0.1-1.4-0.1-2.4-0.2c0.4-6.4,0.6-9.6,1.1-15.9c1.1,0.1,1.6,0.1,2.7,0.2
			C218.9,21.9,218.7,25,218.1,31.4z"/>
		<path class="st1" d="M232.4,32c-0.2,0.1-0.5,0.2-0.9,0.3c-0.4,0.1-0.7,0.3-1,0.3c-0.4,0.1-0.9,0.2-1.3,0.2c-0.4,0-1,0-1.7-0.1
			c-0.6-0.1-1.1-0.3-1.6-0.5c-0.5-0.2-0.9-0.6-1.3-0.9c-0.3-0.4-0.6-0.8-0.8-1.3c-0.2-0.5-0.2-1-0.2-1.5c0.1-0.8,0.4-1.4,0.9-1.9
			c0.5-0.5,1.2-0.9,2.2-1.1c0.9-0.2,1.9-0.2,3-0.2c1.2,0.1,2.4,0.2,3.7,0.4c0-0.1,0-0.2,0.1-0.4c0.1-0.4,0.1-0.8-0.1-1.1
			c-0.1-0.3-0.3-0.6-0.6-0.8c-0.3-0.2-0.7-0.4-1.1-0.5c-0.5-0.1-0.9-0.2-1.4-0.3c-0.6-0.1-1.3-0.1-2.1-0.1c-0.8,0-1.6,0.1-2.5,0.3
			c-0.1,0-0.1,0-0.1,0c0.1-0.8,0.1-1.2,0.2-1.9c0.5,0,1.2-0.1,2.1-0.1s1.8,0.1,2.6,0.2c1,0.2,1.9,0.4,2.6,0.6c0.7,0.2,1.3,0.6,1.8,1
			c0.5,0.4,0.8,0.9,1,1.4c0.2,0.5,0.2,1.2,0,1.9c-0.6,3.1-0.9,4.6-1.5,7.7c-0.9-0.2-1.4-0.3-2.4-0.4C232.2,32.8,232.3,32.5,232.4,32
			z M232.7,30.5c0.2-1.3,0.3-1.9,0.6-3.1c-0.6-0.1-1.3-0.1-2.3-0.2c-0.9-0.1-1.7-0.1-2.2,0c-0.7,0.1-1.3,0.2-1.7,0.5
			s-0.7,0.7-0.8,1.3c-0.1,0.7,0.1,1.2,0.5,1.6c0.4,0.4,1.1,0.7,1.9,0.8c0.8,0.1,1.5,0.1,2.1-0.1C231.4,31,232,30.7,232.7,30.5z"/>
		<path class="st1" d="M251.2,38c-0.9-0.3-1.4-0.4-2.3-0.7c0.8-2.5,1.2-3.7,1.9-6.2c0.2-0.5,0.3-1,0.3-1.4c0.1-0.5,0.1-0.8,0-1.2
			c-0.1-0.3-0.3-0.6-0.7-0.9c-0.3-0.2-0.8-0.5-1.4-0.6c-0.6-0.2-1.3-0.2-2-0.2c-0.7,0.1-1.4,0.2-2.2,0.5c-0.9,3.3-1.3,5-2.2,8.3
			c-0.9-0.2-1.4-0.4-2.3-0.6c1.1-4.5,1.6-6.7,2.7-11.1c1,0.2,1.5,0.4,2.5,0.6c-0.1,0.5-0.2,0.7-0.3,1.2c0.9-0.3,1.7-0.5,2.5-0.5
			c0.8-0.1,1.6,0,2.4,0.3c1.5,0.4,2.5,1.1,3.1,2.1c0.6,1,0.7,2.1,0.2,3.5C252.6,33.8,252.1,35.2,251.2,38z"/>
		<path class="st1" d="M267.2,44.3c-0.9-0.4-1.3-0.6-2.2-1c0.2-0.4,0.3-0.6,0.5-1.1c-0.5,0.1-0.8,0.1-1.2,0.2c-0.3,0-0.7,0-1.1,0
			c-0.4,0-0.7-0.1-1.1-0.1c-0.4-0.1-0.8-0.2-1.2-0.4c-0.7-0.3-1.3-0.7-1.9-1.2c-0.5-0.5-0.9-1-1.2-1.7c-0.3-0.6-0.4-1.4-0.4-2.1
			c0-0.8,0.2-1.6,0.5-2.5c0.3-0.9,0.8-1.7,1.4-2.3s1.3-1,2-1.3c0.7-0.3,1.5-0.4,2.3-0.4c0.9,0,1.7,0.2,2.5,0.6
			c0.7,0.3,1.3,0.6,1.8,1c0.5,0.3,1,0.8,1.4,1.3c0.8-1.8,1.2-2.7,2-4.5c1,0.4,1.5,0.7,2.5,1.1C271.2,35.6,269.9,38.5,267.2,44.3z
			 M266.1,40.8c1.1-2.4,1.6-3.6,2.7-6c-0.5-0.5-1-0.9-1.4-1.1c-0.4-0.3-0.9-0.5-1.5-0.8c-1.2-0.5-2.3-0.6-3.3-0.1
			c-1,0.4-1.7,1.3-2.2,2.6c-0.5,1.3-0.6,2.3-0.3,3.2c0.3,0.9,0.9,1.5,2.1,2c0.6,0.2,1.2,0.4,1.9,0.4
			C264.7,40.9,265.4,40.9,266.1,40.8z"/>
		<path class="st1" d="M286.4,55.1c3-4.5,4.5-6.7,7.5-11.2c-2.4-1.6-3.6-2.4-6.1-3.9c0.4-0.6,0.6-0.9,0.9-1.5
			c5.9,3.6,8.8,5.6,14.4,9.8c-0.4,0.6-0.7,0.9-1.1,1.4c-2.3-1.8-3.5-2.6-5.9-4.3c-3.1,4.4-4.6,6.6-7.7,11.1
			C287.7,56,287.2,55.7,286.4,55.1z"/>
		<path class="st1" d="M308.5,65.4c-1.3,1.4-2.8,2.1-4.4,2c-1.6-0.1-3.2-0.7-4.7-2.1c-1.6-1.3-2.5-2.8-2.8-4.4
			c-0.3-1.6,0.1-3.1,1.3-4.6c1.2-1.5,2.6-2.3,4.3-2.3c1.7,0,3.4,0.7,5,2.1c1.7,1.4,2.6,3,2.9,4.7C310.4,62.4,309.8,64,308.5,65.4z
			 M306.5,63.5c1-1.1,1.5-2.2,1.4-3.2c-0.1-1-0.7-2-1.7-2.9c-1.1-0.9-2.1-1.3-3.2-1.2c-1,0.1-2,0.7-2.9,1.9
			c-0.9,1.1-1.3,2.2-1.2,3.2c0.1,1,0.6,2,1.7,2.8c1,0.9,2,1.2,3,1.2C304.5,65.2,305.5,64.6,306.5,63.5z"/>
		<path class="st1" d="M316.6,82.2c-0.7-0.8-1-1.2-1.7-2c0.4-0.3,0.6-0.5,1-0.8c-0.9-0.3-1.7-0.6-2.4-0.9c-0.7-0.4-1.3-0.9-1.9-1.5
			c-0.5-0.5-0.8-1-1.1-1.5c-0.3-0.5-0.5-1.1-0.5-1.7c-0.1-0.6,0-1.1,0.2-1.7c0.2-0.6,0.6-1.1,1.1-1.7c2.1-2.1,3.2-3.2,5.3-5.3
			c0.8,0.8,1.2,1.2,1.9,2c-1.9,1.8-2.8,2.7-4.7,4.5c-0.4,0.4-0.8,0.8-1,1.1c-0.2,0.3-0.4,0.7-0.5,1c-0.1,0.4,0,0.7,0.1,1.1
			c0.2,0.4,0.5,0.8,0.9,1.3c0.4,0.5,1,0.9,1.7,1.3s1.4,0.6,2.1,0.9c2.6-2.3,3.9-3.4,6.4-5.6c0.7,0.8,1.1,1.3,1.8,2.1
			C321.8,77.8,320.1,79.3,316.6,82.2z"/>
		<path class="st1" d="M333.4,89c0-0.1-0.1-0.1-0.1-0.1c-0.1-0.2-0.2-0.4-0.3-0.6c-0.1-0.2-0.3-0.4-0.5-0.7c-0.4-0.6-1-1.2-1.6-1.7
			c-0.6-0.5-1.3-0.9-2.1-1.1c-2.6,1.9-3.9,2.9-6.5,4.8c-0.6-0.9-1-1.3-1.6-2.1c3.6-2.8,5.5-4.2,9.1-7c0.7,0.9,1,1.4,1.7,2.3
			c-0.5,0.4-0.8,0.6-1.4,1c1.1,0.5,2,1,2.7,1.4c0.7,0.5,1.2,1,1.6,1.7c0.2,0.2,0.3,0.4,0.4,0.6c0.1,0.1,0.2,0.3,0.2,0.4
			C334.4,88.3,334.1,88.5,333.4,89z"/>
	</g>
</g>
</svg>
