<?xml version="1.0" encoding="utf-8"?>
<!-- Generator: Adobe Illustrator 19.0.0, SVG Export Plug-In . SVG Version: 6.00 Build 0)  -->
<svg width="40" height="50" version="1.1" id="Capa_1" xmlns="http://www.w3.org/2000/svg" xmlns:xlink="http://www.w3.org/1999/xlink" x="0px" y="0px"
	 viewBox="5.2 45 415.7 512" style="enable-background:new 5.2 45 415.7 512;" xml:space="preserve">
<style type="text/css">
	.st0{fill:#5DAEE8;}
	.st1{clip-path:url(#SVGID_2_);fill:#449FD8;}
</style>
<path class="st0" d="M213,45C98.2,45,5.2,138.1,5.2,252.8C5.2,357,134.7,494,189.2,547.1c13.4,13,34.5,13.3,48.1,0.5
	c54.9-51.2,183.5-183,183.5-294.8C420.8,138.1,327.8,45,213,45z M213,320.4c-47.5,0-85.9-38.5-85.9-85.9s38.5-85.9,85.9-85.9
	c47.4,0,85.9,38.5,85.9,85.9S260.4,320.4,213,320.4z"/>
<g>
	<defs>
		<rect id="SVGID_1_" x="213" y="14" width="280" height="574"/>
	</defs>
	<clipPath id="SVGID_2_">
		<use xlink:href="#SVGID_1_"  style="overflow:visible;"/>
	</clipPath>
	<path class="st1" d="M213,45C98.2,45,5.2,138.1,5.2,252.8C5.2,357,134.7,494,189.2,547.1c13.4,13,34.5,13.3,48.1,0.5
		c54.9-51.2,183.5-183,183.5-294.8C420.8,138.1,327.8,45,213,45z M213,320.4c-47.5,0-85.9-38.5-85.9-85.9s38.5-85.9,85.9-85.9
		c47.4,0,85.9,38.5,85.9,85.9S260.4,320.4,213,320.4z"/>
</g>
</svg>
